<svg id="visual" viewBox="0 0 450 900" width="450" height="900" xmlns="http://www.w3.org/2000/svg" xmlns:xlink="http://www.w3.org/1999/xlink" version="1.1"><path d="M0 82L6.8 77.5C13.7 73 27.3 64 41 62.5C54.7 61 68.3 67 82 65.5C95.7 64 109.3 55 123 55C136.7 55 150.3 64 164 68.5C177.7 73 191.3 73 204.8 79C218.3 85 231.7 97 245.2 91C258.7 85 272.3 61 286 53.5C299.7 46 313.3 55 327 64C340.7 73 354.3 82 368 89.5C381.7 97 395.3 103 409 104.5C422.7 106 436.3 103 443.2 101.5L450 100L450 0L443.2 0C436.3 0 422.7 0 409 0C395.3 0 381.7 0 368 0C354.3 0 340.7 0 327 0C313.3 0 299.7 0 286 0C272.3 0 258.7 0 245.2 0C231.7 0 218.3 0 204.8 0C191.3 0 177.7 0 164 0C150.3 0 136.7 0 123 0C109.3 0 95.7 0 82 0C68.3 0 54.7 0 41 0C27.3 0 13.7 0 6.8 0L0 0Z" fill="#8fabcc"></path><path d="M0 235L6.8 227.5C13.7 220 27.3 205 41 187C54.7 169 68.3 148 82 146.5C95.7 145 109.3 163 123 161.5C136.7 160 150.3 139 164 146.5C177.7 154 191.3 190 204.8 212.5C218.3 235 231.7 244 245.2 236.5C258.7 229 272.3 205 286 199C299.7 193 313.3 205 327 206.5C340.7 208 354.3 199 368 200.5C381.7 202 395.3 214 409 214C422.7 214 436.3 202 443.2 196L450 190L450 98L443.2 99.5C436.3 101 422.7 104 409 102.5C395.3 101 381.7 95 368 87.5C354.3 80 340.7 71 327 62C313.3 53 299.7 44 286 51.5C272.3 59 258.7 83 245.2 89C231.7 95 218.3 83 204.8 77C191.3 71 177.7 71 164 66.5C150.3 62 136.7 53 123 53C109.3 53 95.7 62 82 63.5C68.3 65 54.7 59 41 60.5C27.3 62 13.7 71 6.8 75.5L0 80Z" fill="#678cba"></path><path d="M0 307L6.8 305.5C13.7 304 27.3 301 41 305.5C54.7 310 68.3 322 82 325C95.7 328 109.3 322 123 304C136.7 286 150.3 256 164 266.5C177.7 277 191.3 328 204.8 350.5C218.3 373 231.7 367 245.2 353.5C258.7 340 272.3 319 286 311.5C299.7 304 313.3 310 327 323.5C340.7 337 354.3 358 368 365.5C381.7 373 395.3 367 409 355C422.7 343 436.3 325 443.2 316L450 307L450 188L443.2 194C436.3 200 422.7 212 409 212C395.3 212 381.7 200 368 198.5C354.3 197 340.7 206 327 204.5C313.3 203 299.7 191 286 197C272.3 203 258.7 227 245.2 234.5C231.7 242 218.3 233 204.8 210.5C191.3 188 177.7 152 164 144.5C150.3 137 136.7 158 123 159.5C109.3 161 95.7 143 82 144.5C68.3 146 54.7 167 41 185C27.3 203 13.7 218 6.8 225.5L0 233Z" fill="#4e6e96"></path><path d="M0 496L6.8 499C13.7 502 27.3 508 41 502C54.7 496 68.3 478 82 493C95.7 508 109.3 556 123 553C136.7 550 150.3 496 164 493C177.7 490 191.3 538 204.8 568C218.3 598 231.7 610 245.2 599.5C258.7 589 272.3 556 286 554.5C299.7 553 313.3 583 327 580C340.7 577 354.3 541 368 538C381.7 535 395.3 565 409 575.5C422.7 586 436.3 577 443.2 572.5L450 568L450 305L443.2 314C436.3 323 422.7 341 409 353C395.3 365 381.7 371 368 363.5C354.3 356 340.7 335 327 321.5C313.3 308 299.7 302 286 309.5C272.3 317 258.7 338 245.2 351.5C231.7 365 218.3 371 204.8 348.5C191.3 326 177.7 275 164 264.5C150.3 254 136.7 284 123 302C109.3 320 95.7 326 82 323C68.3 320 54.7 308 41 303.5C27.3 299 13.7 302 6.8 303.5L0 305Z" fill="#456286"></path><path d="M0 577L6.8 575.5C13.7 574 27.3 571 41 560.5C54.7 550 68.3 532 82 560.5C95.7 589 109.3 664 123 671.5C136.7 679 150.3 619 164 616C177.7 613 191.3 667 204.8 685C218.3 703 231.7 685 245.2 665.5C258.7 646 272.3 625 286 629.5C299.7 634 313.3 664 327 661C340.7 658 354.3 622 368 617.5C381.7 613 395.3 640 409 649C422.7 658 436.3 649 443.2 644.5L450 640L450 566L443.2 570.5C436.3 575 422.7 584 409 573.5C395.3 563 381.7 533 368 536C354.3 539 340.7 575 327 578C313.3 581 299.7 551 286 552.5C272.3 554 258.7 587 245.2 597.5C231.7 608 218.3 596 204.8 566C191.3 536 177.7 488 164 491C150.3 494 136.7 548 123 551C109.3 554 95.7 506 82 491C68.3 476 54.7 494 41 500C27.3 506 13.7 500 6.8 497L0 494Z" fill="#4e6e96"></path><path d="M0 838L6.8 839.5C13.7 841 27.3 844 41 847C54.7 850 68.3 853 82 854.5C95.7 856 109.3 856 123 847C136.7 838 150.3 820 164 820C177.7 820 191.3 838 204.8 845.5C218.3 853 231.7 850 245.2 841C258.7 832 272.3 817 286 815.5C299.7 814 313.3 826 327 827.5C340.7 829 354.3 820 368 818.5C381.7 817 395.3 823 409 826C422.7 829 436.3 829 443.2 829L450 829L450 638L443.2 642.5C436.3 647 422.7 656 409 647C395.3 638 381.7 611 368 615.5C354.3 620 340.7 656 327 659C313.3 662 299.7 632 286 627.5C272.3 623 258.7 644 245.2 663.5C231.7 683 218.3 701 204.8 683C191.3 665 177.7 611 164 614C150.3 617 136.7 677 123 669.5C109.3 662 95.7 587 82 558.5C68.3 530 54.7 548 41 558.5C27.3 569 13.7 572 6.8 573.5L0 575Z" fill="#678cba"></path><path d="M0 901L6.8 901C13.7 901 27.3 901 41 901C54.7 901 68.3 901 82 901C95.7 901 109.3 901 123 901C136.7 901 150.3 901 164 901C177.7 901 191.3 901 204.8 901C218.3 901 231.7 901 245.2 901C258.7 901 272.3 901 286 901C299.7 901 313.3 901 327 901C340.7 901 354.3 901 368 901C381.7 901 395.3 901 409 901C422.7 901 436.3 901 443.2 901L450 901L450 827L443.2 827C436.3 827 422.7 827 409 824C395.3 821 381.7 815 368 816.5C354.3 818 340.7 827 327 825.5C313.3 824 299.7 812 286 813.5C272.3 815 258.7 830 245.2 839C231.7 848 218.3 851 204.8 843.5C191.3 836 177.7 818 164 818C150.3 818 136.7 836 123 845C109.3 854 95.7 854 82 852.5C68.3 851 54.7 848 41 845C27.3 842 13.7 839 6.8 837.5L0 836Z" fill="#8fabcc"></path></svg>