<svg id="visual" viewBox="0 0 450 900" width="450" height="900" xmlns="http://www.w3.org/2000/svg" xmlns:xlink="http://www.w3.org/1999/xlink" version="1.1"><rect x="0" y="0" width="450" height="900" fill="#001220"></rect><defs><linearGradient id="grad1_0" x1="0%" y1="0%" x2="100%" y2="100%"><stop offset="30%" stop-color="#001220" stop-opacity="1"></stop><stop offset="70%" stop-color="#001220" stop-opacity="1"></stop></linearGradient></defs><defs><linearGradient id="grad2_0" x1="0%" y1="0%" x2="100%" y2="100%"><stop offset="30%" stop-color="#001220" stop-opacity="1"></stop><stop offset="70%" stop-color="#001220" stop-opacity="1"></stop></linearGradient></defs><g transform="translate(450, 0)"><path d="M0 405C-47.5 386.4 -95 367.7 -145.4 351.1C-195.8 334.4 -249.1 319.8 -286.4 286.4C-323.7 253 -345 200.9 -362.2 150C-379.3 99.2 -392.1 49.6 -405 0L0 0Z" fill="#FBAE3C"></path></g><g transform="translate(0, 900)"><path d="M0 -405C38.7 -365.1 77.4 -325.2 129 -311.3C180.5 -297.5 245 -309.8 286.4 -286.4C327.8 -262.9 346.2 -203.7 362.2 -150C378.1 -96.3 391.5 -48.2 405 0L0 0Z" fill="#FBAE3C"></path></g></svg>