<svg id="visual" viewBox="0 0 450 900" width="450" height="900" xmlns="http://www.w3.org/2000/svg" xmlns:xlink="http://www.w3.org/1999/xlink" version="1.1"><rect x="0" y="0" width="450" height="900" fill="#efefef"></rect><defs><linearGradient id="grad1_0" x1="0%" y1="0%" x2="100%" y2="100%"><stop offset="30%" stop-color="#efefef" stop-opacity="1"></stop><stop offset="70%" stop-color="#efefef" stop-opacity="1"></stop></linearGradient></defs><defs><linearGradient id="grad2_0" x1="0%" y1="0%" x2="100%" y2="100%"><stop offset="30%" stop-color="#efefef" stop-opacity="1"></stop><stop offset="70%" stop-color="#efefef" stop-opacity="1"></stop></linearGradient></defs><g transform="translate(450, 0)"><path d="M0 202.5C-24.5 190.3 -49 178.1 -68.1 164.5C-87.3 150.8 -101 135.6 -122.3 122.3C-143.6 109 -172.5 97.6 -187.1 77.5C-201.7 57.4 -202.1 28.7 -202.5 0L0 0Z" fill="#646464"></path></g><g transform="translate(0, 900)"><path d="M0 -202.5C27.4 -201.1 54.9 -199.7 77.5 -187.1C100.1 -174.5 117.9 -150.6 128 -128C138.1 -105.3 140.4 -83.9 151.5 -62.8C162.6 -41.6 182.6 -20.8 202.5 0L0 0Z" fill="#646464"></path></g></svg>